<svg xmlns="http://www.w3.org/2000/svg" version="1.1" xmlns:xlink="http://www.w3.org/1999/xlink" xmlns:svgjs="http://svgjs.dev/svgjs" width="1500" height="935" viewBox="0 0 1500 935"><g transform="matrix(1,0,0,1,-0.9090909090909918,0.3785425101214628)"><svg viewBox="0 0 396 247" data-background-color="#000000" preserveAspectRatio="xMidYMid meet" height="935" width="1500" xmlns="http://www.w3.org/2000/svg" xmlns:xlink="http://www.w3.org/1999/xlink"><g id="tight-bounds" transform="matrix(1,0,0,1,0.2400000000000091,-0.09999999999999432)"><svg viewBox="0 0 395.52 247.2" height="247.2" width="395.52"><rect width="395.52" height="247.20000000000005" fill="url(#4aa3f591-2025-4787-9424-d474480ff104)" mask="url(#167ea254-2be3-4f6c-84ed-0359bef294b0)" data-fill-palette-color="tertiary"></rect><g><svg></svg></g><g><svg viewBox="0 0 395.52 247.2" height="247.2" width="395.52"><g transform="matrix(1,0,0,1,75.54432,107.58778524064171)"><svg viewBox="0 0 244.43135999999998 32.02442951871657" height="32.02442951871657" width="244.43135999999998"><g><svg viewBox="0 0 244.43135999999998 32.02442951871657" height="32.02442951871657" width="244.43135999999998"><g><svg viewBox="0 0 244.43135999999998 32.02442951871657" height="32.02442951871657" width="244.43135999999998"><g><svg viewBox="0 0 244.43135999999998 32.02442951871657" height="32.02442951871657" width="244.43135999999998"><g id="textblocktransform"><svg viewBox="0 0 244.43135999999998 32.02442951871657" height="32.02442951871657" width="244.43135999999998" id="textblock"><g><svg viewBox="0 0 244.43135999999998 32.02442951871657" height="32.02442951871657" width="244.43135999999998"><g transform="matrix(1,0,0,1,0,0)"><svg width="244.43135999999998" viewBox="4.3 -33.65 261.78 34.3" height="32.02442951871657" data-palette-color="url(#db857d3b-9e18-4353-b585-cabcab3ab843)"></svg></g></svg></g></svg></g></svg></g></svg></g></svg></g></svg></g><g><path d="M0 123.6c0-68.262 55.338-123.6 123.6-123.6 61.525 0 112.551 44.954 122.024 103.808l-1.463 0c-9.458-58.053-59.835-102.364-120.561-102.364-67.465 0-122.156 54.691-122.156 122.156 0 67.465 54.691 122.156 122.156 122.156 60.726 0 111.103-44.311 120.561-102.364h1.463c-9.472 58.854-60.498 103.808-122.024 103.808-68.262 0-123.6-55.338-123.6-123.6z" fill="url(#4aa3f591-2025-4787-9424-d474480ff104)" stroke="transparent" data-fill-palette-color="tertiary"></path></g></svg></g><defs></defs><mask id="c15d8ff0-5ba9-4afb-af9e-5d63a227c591"><g id="SvgjsG2457"><svg viewBox="0 0 395.52 247.2" height="247.2" width="395.52"><g><svg></svg></g><g><svg viewBox="0 0 395.52 247.2" height="247.2" width="395.52"><g transform="matrix(1,0,0,1,75.54432,107.58778524064171)"><svg viewBox="0 0 244.43135999999998 32.02442951871657" height="32.02442951871657" width="244.43135999999998"><g><svg viewBox="0 0 244.43135999999998 32.02442951871657" height="32.02442951871657" width="244.43135999999998"><g><svg viewBox="0 0 244.43135999999998 32.02442951871657" height="32.02442951871657" width="244.43135999999998"><g><svg viewBox="0 0 244.43135999999998 32.02442951871657" height="32.02442951871657" width="244.43135999999998"><g id="SvgjsG2456"><svg viewBox="0 0 244.43135999999998 32.02442951871657" height="32.02442951871657" width="244.43135999999998" id="SvgjsSvg2455"><g><svg viewBox="0 0 244.43135999999998 32.02442951871657" height="32.02442951871657" width="244.43135999999998"><g transform="matrix(1,0,0,1,0,0)"><svg width="244.43135999999998" viewBox="4.3 -33.65 261.78 34.3" height="32.02442951871657" data-palette-color="url(#db857d3b-9e18-4353-b585-cabcab3ab843)"><path d="M8.8 0L4.3 0 4.3-33 10.4-33 27.8-6.05 28.2-6.05 27.85-33 32.3-33 32.3 0 26.75 0 8.9-27.55 8.45-27.55 8.8 0ZM45.5 0L40.9 0 40.9-33 45.5-33 45.5 0ZM64.05 0L43.25 0 43.25-3.95 64.05-3.95 64.05 0ZM61.7-15L43.25-15 43.25-18.7 61.7-18.7 61.7-15ZM64-29.1L43.25-29.1 43.25-33 64-33 64-29.1ZM81.84 0.65L81.84 0.65Q78.55 0.65 76.07-0.05 73.59-0.75 71.92-2.13 70.25-3.5 69.45-5.5 68.65-7.5 68.75-10.15L68.75-10.15 72.9-11.05Q72.7-8.45 73.75-6.7 74.8-4.95 76.95-4.08 79.09-3.2 82-3.2L82-3.2Q84.8-3.2 86.75-3.9 88.7-4.6 89.67-5.85 90.65-7.1 90.65-8.7L90.65-8.7Q90.65-10.5 89.5-11.55 88.34-12.6 86.42-13.18 84.5-13.75 82.15-14.25L82.15-14.25Q79.84-14.75 77.55-15.4 75.25-16.05 73.42-17.07 71.59-18.1 70.47-19.78 69.34-21.45 69.34-24.05L69.34-24.05Q69.34-27 70.82-29.15 72.3-31.3 75-32.48 77.7-33.65 81.34-33.65L81.34-33.65Q84.95-33.65 87.77-32.5 90.59-31.35 92.25-29.13 93.9-26.9 94-23.65L94-23.65 89.7-22.6Q89.7-24.4 89.07-25.78 88.45-27.15 87.34-28.03 86.25-28.9 84.7-29.38 83.15-29.85 81.3-29.85L81.3-29.85Q79.05-29.85 77.34-29.15 75.65-28.45 74.7-27.25 73.75-26.05 73.75-24.4L73.75-24.4Q73.75-22.45 75.12-21.33 76.5-20.2 78.7-19.55 80.9-18.9 83.4-18.35L83.4-18.35Q85.55-17.9 87.62-17.28 89.7-16.65 91.4-15.63 93.09-14.6 94.09-12.95 95.09-11.3 95.09-8.75L95.09-8.75Q95.09-5.9 93.62-3.8 92.15-1.7 89.2-0.53 86.25 0.65 81.84 0.65ZM113.64 0L109.04 0 109.04-33 113.64-33 113.64 0ZM123.69-29L98.99-29 98.99-33 123.69-33 123.69-29ZM131.39 0L126.44 0 138.04-33 144.74-33 156.34 0 151.39 0 141.69-29.15 141.09-29.15 131.39 0ZM151.39-7.4L131.94-7.4 131.94-10.9 151.39-10.9 151.39-7.4ZM174.44 0L167.74 0 159.49-33 164.44-33 171.04-4.15 171.49-4.15 178.29-33 184.49-33 191.19-4.15 191.64-4.15 198.39-33 203.19-33 194.74 0 188.14 0 181.59-28.8 181.14-28.8 174.44 0ZM211.34 0L206.39 0 217.99-33 224.69-33 236.29 0 231.34 0 221.64-29.15 221.04-29.15 211.34 0ZM231.34-7.4L211.89-7.4 211.89-10.9 231.34-10.9 231.34-7.4ZM254.53 0L249.93 0 249.93-10.65 238.38-33 243.73-33 252.13-15.15 252.38-15.15 260.73-33 266.08-33 254.53-10.7 254.53 0Z" opacity="1" transform="matrix(1,0,0,1,0,0)" fill="white" class="wordmark-text-0" id="SvgjsPath2454"></path></svg></g></svg></g></svg></g></svg></g></svg></g></svg></g></svg></g><g><path d="M0 123.6c0-68.262 55.338-123.6 123.6-123.6 61.525 0 112.551 44.954 122.024 103.808l-1.463 0c-9.458-58.053-59.835-102.364-120.561-102.364-67.465 0-122.156 54.691-122.156 122.156 0 67.465 54.691 122.156 122.156 122.156 60.726 0 111.103-44.311 120.561-102.364h1.463c-9.472 58.854-60.498 103.808-122.024 103.808-68.262 0-123.6-55.338-123.6-123.6z" fill="black" stroke="transparent"></path></g></svg></g><defs><mask></mask></defs></svg><rect width="395.52" height="247.2" fill="black" stroke="none" visibility="hidden"></rect></g></mask><linearGradient x1="0.054" x2="0.941" y1="0.5" y2="0.5" id="db857d3b-9e18-4353-b585-cabcab3ab843"><stop stop-color="#8c8c8c" offset="0"></stop><stop stop-color="#e3e4e5" offset="0.498"></stop><stop stop-color="#8c8c8c" offset="1"></stop></linearGradient><rect width="395.52" height="247.20000000000005" fill="url(#db857d3b-9e18-4353-b585-cabcab3ab843)" mask="url(#c15d8ff0-5ba9-4afb-af9e-5d63a227c591)" data-fill-palette-color="primary"></rect><mask id="167ea254-2be3-4f6c-84ed-0359bef294b0"><g id="SvgjsG2480"><svg viewBox="0 0 395.52 247.2" height="247.2" width="395.52"><g><svg></svg></g><g><svg viewBox="0 0 395.52 247.2" height="247.2" width="395.52"><g transform="matrix(1,0,0,1,75.54432,107.58778524064171)"><svg viewBox="0 0 244.43135999999998 32.02442951871657" height="32.02442951871657" width="244.43135999999998"><g><svg viewBox="0 0 244.43135999999998 32.02442951871657" height="32.02442951871657" width="244.43135999999998"><g><svg viewBox="0 0 244.43135999999998 32.02442951871657" height="32.02442951871657" width="244.43135999999998"><g><svg viewBox="0 0 244.43135999999998 32.02442951871657" height="32.02442951871657" width="244.43135999999998"><g id="SvgjsG2479"><svg viewBox="0 0 244.43135999999998 32.02442951871657" height="32.02442951871657" width="244.43135999999998" id="SvgjsSvg2478"><g><svg viewBox="0 0 244.43135999999998 32.02442951871657" height="32.02442951871657" width="244.43135999999998"><g transform="matrix(1,0,0,1,0,0)"><svg width="244.43135999999998" viewBox="4.3 -33.65 261.78 34.3" height="32.02442951871657" data-palette-color="url(#db857d3b-9e18-4353-b585-cabcab3ab843)"></svg></g></svg></g></svg></g></svg></g></svg></g></svg></g></svg></g><g><path d="M0 123.6c0-68.262 55.338-123.6 123.6-123.6 61.525 0 112.551 44.954 122.024 103.808l-1.463 0c-9.458-58.053-59.835-102.364-120.561-102.364-67.465 0-122.156 54.691-122.156 122.156 0 67.465 54.691 122.156 122.156 122.156 60.726 0 111.103-44.311 120.561-102.364h1.463c-9.472 58.854-60.498 103.808-122.024 103.808-68.262 0-123.6-55.338-123.6-123.6z" fill="white" stroke="transparent"></path></g></svg></g><defs><mask></mask></defs><mask><g id="SvgjsG2477"><svg viewBox="0 0 395.52 247.2" height="247.2" width="395.52"><g><svg></svg></g><g><svg viewBox="0 0 395.52 247.2" height="247.2" width="395.52"><g transform="matrix(1,0,0,1,75.54432,107.58778524064171)"><svg viewBox="0 0 244.43135999999998 32.02442951871657" height="32.02442951871657" width="244.43135999999998"><g><svg viewBox="0 0 244.43135999999998 32.02442951871657" height="32.02442951871657" width="244.43135999999998"><g><svg viewBox="0 0 244.43135999999998 32.02442951871657" height="32.02442951871657" width="244.43135999999998"><g><svg viewBox="0 0 244.43135999999998 32.02442951871657" height="32.02442951871657" width="244.43135999999998"><g id="SvgjsG2476"><svg viewBox="0 0 244.43135999999998 32.02442951871657" height="32.02442951871657" width="244.43135999999998" id="SvgjsSvg2475"><g><svg viewBox="0 0 244.43135999999998 32.02442951871657" height="32.02442951871657" width="244.43135999999998"><g transform="matrix(1,0,0,1,0,0)"><svg width="244.43135999999998" viewBox="4.3 -33.65 261.78 34.3" height="32.02442951871657" data-palette-color="url(#db857d3b-9e18-4353-b585-cabcab3ab843)"><path d="M8.8 0L4.3 0 4.3-33 10.4-33 27.8-6.05 28.2-6.05 27.85-33 32.3-33 32.3 0 26.75 0 8.9-27.55 8.45-27.55 8.8 0ZM45.5 0L40.9 0 40.9-33 45.5-33 45.5 0ZM64.05 0L43.25 0 43.25-3.95 64.05-3.95 64.05 0ZM61.7-15L43.25-15 43.25-18.7 61.7-18.7 61.7-15ZM64-29.1L43.25-29.1 43.25-33 64-33 64-29.1ZM81.84 0.65L81.84 0.65Q78.55 0.65 76.07-0.05 73.59-0.75 71.92-2.13 70.25-3.5 69.45-5.5 68.65-7.5 68.75-10.15L68.75-10.15 72.9-11.05Q72.7-8.45 73.75-6.7 74.8-4.95 76.95-4.08 79.09-3.2 82-3.2L82-3.2Q84.8-3.2 86.75-3.9 88.7-4.6 89.67-5.85 90.65-7.1 90.65-8.7L90.65-8.7Q90.65-10.5 89.5-11.55 88.34-12.6 86.42-13.18 84.5-13.75 82.15-14.25L82.15-14.25Q79.84-14.75 77.55-15.4 75.25-16.05 73.42-17.07 71.59-18.1 70.47-19.78 69.34-21.45 69.34-24.05L69.34-24.05Q69.34-27 70.82-29.15 72.3-31.3 75-32.48 77.7-33.65 81.34-33.65L81.34-33.65Q84.95-33.65 87.77-32.5 90.59-31.35 92.25-29.13 93.9-26.9 94-23.65L94-23.65 89.7-22.6Q89.7-24.4 89.07-25.78 88.45-27.15 87.34-28.03 86.25-28.9 84.7-29.38 83.15-29.85 81.3-29.85L81.3-29.85Q79.05-29.85 77.34-29.15 75.65-28.45 74.7-27.25 73.75-26.05 73.75-24.4L73.75-24.4Q73.75-22.45 75.12-21.33 76.5-20.2 78.7-19.55 80.9-18.9 83.4-18.35L83.4-18.35Q85.55-17.9 87.62-17.28 89.7-16.65 91.4-15.63 93.09-14.6 94.09-12.95 95.09-11.3 95.09-8.75L95.09-8.75Q95.09-5.9 93.62-3.8 92.15-1.7 89.2-0.53 86.25 0.65 81.84 0.65ZM113.64 0L109.04 0 109.04-33 113.64-33 113.64 0ZM123.69-29L98.99-29 98.99-33 123.69-33 123.69-29ZM131.39 0L126.44 0 138.04-33 144.74-33 156.34 0 151.39 0 141.69-29.15 141.09-29.15 131.39 0ZM151.39-7.4L131.94-7.4 131.94-10.9 151.39-10.9 151.39-7.4ZM174.44 0L167.74 0 159.49-33 164.44-33 171.04-4.15 171.49-4.15 178.29-33 184.49-33 191.19-4.15 191.64-4.15 198.39-33 203.19-33 194.74 0 188.14 0 181.59-28.8 181.14-28.8 174.44 0ZM211.34 0L206.39 0 217.99-33 224.69-33 236.29 0 231.34 0 221.64-29.15 221.04-29.15 211.34 0ZM231.34-7.4L211.89-7.4 211.89-10.9 231.34-10.9 231.34-7.4ZM254.53 0L249.93 0 249.93-10.65 238.38-33 243.73-33 252.13-15.15 252.38-15.15 260.73-33 266.08-33 254.53-10.7 254.53 0Z" opacity="1" transform="matrix(1,0,0,1,0,0)" fill="black" class="wordmark-text-0" id="SvgjsPath2474"></path></svg></g></svg></g></svg></g></svg></g></svg></g></svg></g></svg></g><g><path d="M0 123.6c0-68.262 55.338-123.6 123.6-123.6 61.525 0 112.551 44.954 122.024 103.808l-1.463 0c-9.458-58.053-59.835-102.364-120.561-102.364-67.465 0-122.156 54.691-122.156 122.156 0 67.465 54.691 122.156 122.156 122.156 60.726 0 111.103-44.311 120.561-102.364h1.463c-9.472 58.854-60.498 103.808-122.024 103.808-68.262 0-123.6-55.338-123.6-123.6z" fill="black" stroke="transparent"></path></g></svg></g><defs><mask></mask></defs></svg><rect width="395.52" height="247.2" fill="black" stroke="none" visibility="hidden"></rect></g></mask></svg><rect width="395.52" height="247.2" fill="black" stroke="none" visibility="hidden"></rect></g></mask><linearGradient x1="0.054" x2="0.941" y1="0.5" y2="0.5" id="4aa3f591-2025-4787-9424-d474480ff104"><stop stop-color="#8c8c8c" offset="0"></stop><stop stop-color="#e3e4e5" offset="0.498"></stop><stop stop-color="#8c8c8c" offset="1"></stop></linearGradient></svg><rect width="395.52" height="247.2" fill="none" stroke="none" visibility="hidden"></rect></g></svg></g></svg>